<?xml version="1.0" encoding="UTF-8"?>
<!DOCTYPE svg PUBLIC "-//W3C//DTD SVG 1.1//EN" "http://www.w3.org/Graphics/SVG/1.1/DTD/svg11.dtd">
<!-- Creator: CorelDRAW -->
<svg xmlns="http://www.w3.org/2000/svg" xml:space="preserve" width="21.3358mm" height="21.3358mm" version="1.1" style="shape-rendering:geometricPrecision; text-rendering:geometricPrecision; image-rendering:optimizeQuality; fill-rule:evenodd; clip-rule:evenodd"
viewBox="0 0 2133.58 2133.58"
 xmlns:xlink="http://www.w3.org/1999/xlink"
 xmlns:xodm="http://www.corel.com/coreldraw/odm/2003">
 <defs>
  <style type="text/css">
   <![CDATA[
    .fil0 {fill:#794CFF}
   ]]>
  </style>
 </defs>
 <g id="Слой_x0020_1">
  <metadata id="CorelCorpID_0Corel-Layer"/>
  <g id="_1732637072016">
   <path class="fil0" d="M601.15 691.43l1380.02 0c83.83,0 152.41,68.58 152.41,152.4l0 0c0,83.82 -68.58,152.4 -152.41,152.4l-1380.02 0c-83.83,0 -152.41,-68.58 -152.41,-152.4l0 0c0,-83.82 68.58,-152.4 152.41,-152.4z"/>
   <path class="fil0" d="M601.15 1255.87l1380.02 0c83.83,0 152.41,68.58 152.41,152.4l0 0c0,83.82 -68.58,152.4 -152.41,152.4l-1380.02 0c-83.83,0 -152.41,-68.58 -152.41,-152.4l0 0c0,-83.82 68.58,-152.4 152.41,-152.4z"/>
   <path class="fil0" d="M152.41 691.43c-84.17,0 -152.4,68.23 -152.4,152.4 0,84.17 68.23,152.4 152.4,152.4 84.17,0 152.4,-68.23 152.4,-152.4 0,-84.17 -68.23,-152.4 -152.4,-152.4z"/>
   <path class="fil0" d="M152.41 1255.87c-84.17,0 -152.4,68.23 -152.4,152.4 0,84.17 68.23,152.4 152.4,152.4 84.17,0 152.4,-68.23 152.4,-152.4 0,-84.17 -68.23,-152.4 -152.4,-152.4z"/>
   <path class="fil0" d="M601.15 1820.32l1380.02 0c83.83,0 152.41,68.58 152.41,152.4l0 0c0,83.82 -68.58,152.4 -152.41,152.4l-1380.02 0c-83.83,0 -152.41,-68.58 -152.41,-152.4l0 0c0,-83.82 68.58,-152.4 152.41,-152.4z"/>
   <path class="fil0" d="M152.41 1820.32c-84.17,0 -152.4,68.23 -152.4,152.4 0,84.17 68.23,152.4 152.4,152.4 84.17,0 152.4,-68.23 152.4,-152.4 0,-84.17 -68.23,-152.4 -152.4,-152.4z"/>
  </g>
 </g>
</svg>
